<svg width="774" height="420" viewBox="0 0 774 420" fill="none" xmlns="http://www.w3.org/2000/svg">
<rect width="774" height="420" fill="#F5F5F5"/>
<g id="undraw_payments_re_77x0 1" clip-path="url(#clip0_0_1)">
<path id="bottom-section" d="M420 221.693V222.603C419.999 230.961 416.677 238.977 410.766 244.886C404.855 250.795 396.838 254.114 388.48 254.113H32.71C24.3533 254.112 16.3391 250.792 10.4301 244.883C4.52104 238.974 1.20102 230.96 1.20023 222.603V221.693H420Z" fill="#F2F2F2"/>
<path id="leafe-outline" d="M75.6098 71.6929C49.8998 78.0429 26.8199 58.2629 22.79 39.9129L24.58 39.5929C46.25 34.8029 70.4399 50.2928 75.6098 71.6929Z" fill="#E5E7EB"/>
<path id="chip-outline" d="M323.218 203.043C317.475 203.043 312.908 201.335 309.642 197.966C302.26 190.351 302.722 175.672 303.094 163.878C303.202 160.447 303.304 157.206 303.201 154.491L303.2 154.45C303.226 149.145 305.344 144.066 309.094 140.314C312.844 136.562 317.923 134.441 323.227 134.413H370.843C376.579 134.413 381.142 136.118 384.406 139.483C391.787 147.092 391.33 161.767 390.962 173.558C390.855 176.997 390.754 180.245 390.859 182.964C390.841 188.277 388.725 193.366 384.973 197.127C381.22 200.887 376.135 203.013 370.823 203.043H323.218ZM305.2 154.436C305.305 157.215 305.202 160.482 305.093 163.941C304.733 175.358 304.286 189.567 311.078 196.574C313.993 199.581 317.964 201.043 323.218 201.043H370.82C375.597 201.018 380.171 199.109 383.549 195.73C386.927 192.352 388.835 187.777 388.86 183C388.753 180.252 388.855 176.97 388.963 173.496C389.319 162.081 389.761 147.876 382.97 140.875C380.057 137.872 376.09 136.413 370.843 136.413H323.23C318.458 136.439 313.888 138.346 310.513 141.72C307.138 145.094 305.229 149.663 305.2 154.436Z" fill="#3F3D56"/>
<path id="leaf" d="M65.0901 73.5331C56.7409 73.4825 48.5733 71.0903 41.5161 66.6284C31.1774 60.204 23.371 49.915 21.1434 39.7778L20.9202 38.7617L23.7141 38.2617C45.7073 33.4077 70.5829 49.0497 75.912 71.0981L76.1456 72.0649L75.1801 72.3036C71.8789 73.1206 68.4908 73.5335 65.0901 73.5331ZM23.3387 40.3608C25.7385 49.6601 33.0217 58.9951 42.5717 64.9297C51.8053 70.8389 62.995 72.8733 73.7176 70.5923C68.1421 50.0508 44.7951 35.6362 24.1264 40.2193L23.3387 40.3608Z" fill="#3F3D56"/>
<path id="pill" d="M37.3476 187.175C30.805 187.175 25.4896 184.248 22.369 178.907C20.6199 175.8 19.7005 172.294 19.6994 168.729C19.6983 165.163 20.6155 161.657 22.3627 158.549C25.5332 153.117 30.9753 150.17 37.6964 150.273H101.14C107.838 150.187 113.285 153.121 116.457 158.56C118.204 161.667 119.122 165.172 119.122 168.737C119.122 172.302 118.203 175.807 116.455 178.915C113.284 184.34 107.839 187.238 101.125 187.173H37.6802C37.569 187.174 37.4581 187.175 37.3476 187.175ZM37.3848 152.27C31.55 152.27 26.8369 154.851 24.09 159.557C22.516 162.357 21.6897 165.516 21.6908 168.728C21.6918 171.94 22.5201 175.098 24.096 177.897C26.8892 182.679 31.6989 185.267 37.6652 185.173H101.14C107.113 185.268 111.937 182.681 114.729 177.905C116.303 175.106 117.13 171.948 117.131 168.736C117.131 165.525 116.304 162.367 114.73 159.567C111.937 154.779 107.111 152.201 101.154 152.273H37.6754C37.5785 152.271 37.4811 152.27 37.3848 152.27Z" fill="#3F3D56"/>
<path id="chip-1" d="M339.5 158.193H319.5C318.174 158.193 316.902 157.666 315.964 156.728C315.027 155.791 314.5 154.519 314.5 153.193C314.5 151.867 315.027 150.595 315.964 149.657C316.902 148.72 318.174 148.193 319.5 148.193H339.5C340.826 148.193 342.098 148.72 343.035 149.657C343.973 150.595 344.5 151.867 344.5 153.193C344.5 154.519 343.973 155.791 343.035 156.728C342.098 157.666 340.826 158.193 339.5 158.193Z" fill="#E5E7EB"/>
<path id="chip-2" d="M339.5 174.193H319.5C318.174 174.193 316.902 173.666 315.964 172.728C315.027 171.791 314.5 170.519 314.5 169.193C314.5 167.867 315.027 166.595 315.964 165.657C316.902 164.72 318.174 164.193 319.5 164.193H339.5C340.826 164.193 342.098 164.72 343.035 165.657C343.973 166.595 344.5 167.867 344.5 169.193C344.5 170.519 343.973 171.791 343.035 172.728C342.098 173.666 340.826 174.193 339.5 174.193Z" fill="#E5E7EB"/>
<path id="chip-3" d="M339.5 190.193H319.5C318.174 190.193 316.902 189.666 315.964 188.728C315.027 187.791 314.5 186.519 314.5 185.193C314.5 183.867 315.027 182.595 315.964 181.657C316.902 180.72 318.174 180.193 319.5 180.193H339.5C340.826 180.193 342.098 180.72 343.035 181.657C343.973 182.595 344.5 183.867 344.5 185.193C344.5 186.519 343.973 187.791 343.035 188.728C342.098 189.666 340.826 190.193 339.5 190.193Z" fill="#E5E7EB"/>
<path id="chip-4" d="M374.5 158.193H354.5C353.174 158.193 351.902 157.666 350.964 156.728C350.027 155.791 349.5 154.519 349.5 153.193C349.5 151.867 350.027 150.595 350.964 149.657C351.902 148.72 353.174 148.193 354.5 148.193H374.5C375.826 148.193 377.098 148.72 378.035 149.657C378.973 150.595 379.5 151.867 379.5 153.193C379.5 154.519 378.973 155.791 378.035 156.728C377.098 157.666 375.826 158.193 374.5 158.193Z" fill="#E5E7EB"/>
<path id="chip-5" d="M374.5 174.193H354.5C353.174 174.193 351.902 173.666 350.964 172.728C350.027 171.791 349.5 170.519 349.5 169.193C349.5 167.867 350.027 166.595 350.964 165.657C351.902 164.72 353.174 164.193 354.5 164.193H374.5C375.826 164.193 377.098 164.72 378.035 165.657C378.973 166.595 379.5 167.867 379.5 169.193C379.5 170.519 378.973 171.791 378.035 172.728C377.098 173.666 375.826 174.193 374.5 174.193Z" fill="#E5E7EB"/>
<path id="chip-6" d="M374.5 190.193H354.5C353.174 190.193 351.902 189.666 350.964 188.728C350.027 187.791 349.5 186.519 349.5 185.193C349.5 183.867 350.027 182.595 350.964 181.657C351.902 180.72 353.174 180.193 354.5 180.193H374.5C375.826 180.193 377.098 180.72 378.035 181.657C378.973 182.595 379.5 183.867 379.5 185.193C379.5 186.519 378.973 187.791 378.035 188.728C377.098 189.666 375.826 190.193 374.5 190.193Z" fill="#E5E7EB"/>
<path id="line" d="M420 87.1338H1.2002V89.1338H420V87.1338Z" fill="#3F3D56"/>
<path id="card-shape" d="M387 254.693H33C24.2509 254.683 15.863 251.203 9.67639 245.016C3.48983 238.83 0.00988299 230.442 0 221.693V49.6928C0.00988299 40.9437 3.48983 32.5558 9.67639 26.3692C15.863 20.1827 24.2509 16.7027 33 16.6928H387C395.749 16.7027 404.137 20.1827 410.324 26.3692C416.51 32.5558 419.99 40.9437 420 49.6928V221.693C419.99 230.442 416.51 238.83 410.324 245.016C404.137 251.203 395.749 254.683 387 254.693ZM33 18.6928C24.7812 18.7022 16.9016 21.9713 11.09 27.7829C5.27839 33.5945 2.00934 41.474 2 49.6928V221.693C2.00934 229.912 5.27841 237.791 11.09 243.603C16.9016 249.414 24.7812 252.684 33 252.693H387C395.219 252.684 403.098 249.414 408.91 243.603C414.722 237.791 417.991 229.912 418 221.693V49.6928C417.991 41.474 414.722 33.5944 408.91 27.7828C403.098 21.9712 395.219 18.7022 387 18.6928H33Z" fill="#3F3D56"/>
</g>
<defs>
<clipPath id="clip0_0_1">
<rect width="773.979" height="419.084" fill="white"/>
</clipPath>
</defs>
</svg>
