<svg class="border shadow-md" viewBox="0 0 645.04 645.04" style="width: 645.04px; height: 645.04px;" xmlns="http://www.w3.org/2000/svg" preserveAspectRatio="none"><rect class="bg" id="bg" x="0" y="0" width="645.04" height="645.04" fill="#ffffff"/><rect x="0" y="0" width="0.33949473684210524" height="0.25462105263157897" fill="#ff0b0b" stroke="#ff0b0b" stroke-width="3"/><rect x="0" y="25.462105263157895" width="0.33949473684210524" height="0.6789894736842105" fill="#ff0b0b" stroke="#ff0b0b" stroke-width="3"/><rect x="0" y="93.36105263157894" width="0.33949473684210524" height="0.25462105263157897" fill="#0236fd" stroke="#0236fd" stroke-width="3"/><rect x="0" y="118.82315789473684" width="0.33949473684210524" height="0.6789894736842105" fill="none" stroke="#0236fd" stroke-width="3"/><rect x="0" y="186.72210526315789" width="0.33949473684210524" height="0.5092421052631579" fill="none" stroke="#0236fd" stroke-width="3"/><rect x="0" y="237.64631578947368" width="0.33949473684210524" height="0.33949473684210524" fill="none" stroke="#6ce3f5" stroke-width="3"/><rect x="0" y="271.5957894736842" width="0.33949473684210524" height="0.25462105263157897" fill="#0236fd" stroke="#0236fd" stroke-width="3"/><rect x="0" y="297.05789473684206" width="0.33949473684210524" height="0.8487368421052631" fill="none" stroke="#3307d0" stroke-width="3"/><rect x="0" y="381.9315789473684" width="0.33949473684210524" height="0.6789894736842105" fill="#3307d0" stroke="#3307d0" stroke-width="3"/><rect x="0" y="449.8305263157894" width="0.33949473684210524" height="0.6789894736842105" fill="#3307d0" stroke="#3307d0" stroke-width="3"/><rect x="0" y="517.7294736842105" width="0.33949473684210524" height="0.5092421052631579" fill="none" stroke="#6ce3f5" stroke-width="3"/><rect x="0" y="568.6536842105263" width="0.33949473684210524" height="0.8487368421052631" fill="none" stroke="#6ce3f5" stroke-width="3"/><rect x="33.949473684210524" y="0" width="0.33949473684210524" height="0.5092421052631579" fill="none" stroke="#6ce3f5" stroke-width="3"/><rect x="33.949473684210524" y="50.92421052631579" width="0.33949473684210524" height="0.25462105263157897" fill="none" stroke="#6ce3f5" stroke-width="3"/><rect x="33.949473684210524" y="76.38631578947368" width="0.33949473684210524" height="0.6789894736842105" fill="none" stroke="#3307d0" stroke-width="3"/><rect x="33.949473684210524" y="144.28526315789475" width="0.33949473684210524" height="0.6789894736842105" fill="#3307d0" stroke="#3307d0" stroke-width="3"/><rect x="33.949473684210524" y="212.18421052631578" width="0.33949473684210524" height="0.8487368421052631" fill="none" stroke="#6ce3f5" stroke-width="3"/><rect x="33.949473684210524" y="297.05789473684206" width="0.33949473684210524" height="0.6789894736842105" fill="none" stroke="#6ce3f5" stroke-width="3"/><rect x="33.949473684210524" y="364.9568421052631" width="0.33949473684210524" height="0.8487368421052631" fill="#ff0b0b" stroke="#ff0b0b" stroke-width="3"/><rect x="33.949473684210524" y="449.83052631578937" width="0.33949473684210524" height="0.5092421052631579" fill="none" stroke="#3307d0" stroke-width="3"/><rect x="33.949473684210524" y="500.75473684210516" width="0.33949473684210524" height="0.25462105263157897" fill="none" stroke="#6ce3f5" stroke-width="3"/><rect x="33.949473684210524" y="526.216842105263" width="0.33949473684210524" height="0.33949473684210524" fill="#ff0b0b" stroke="#ff0b0b" stroke-width="3"/><rect x="33.949473684210524" y="560.1663157894735" width="0.33949473684210524" height="0.33949473684210524" fill="none" stroke="#0236fd" stroke-width="3"/><rect x="33.949473684210524" y="594.115789473684" width="0.33949473684210524" height="0.5092421052631579" fill="#0236fd" stroke="#0236fd" stroke-width="3"/><rect x="33.949473684210524" y="645.0399999999997" width="0.33949473684210524" height="0.6789894736842105" fill="#0236fd" stroke="#0236fd" stroke-width="3"/><rect x="67.89894736842105" y="0" width="0.33949473684210524" height="0.6789894736842105" fill="none" stroke="#6ce3f5" stroke-width="3"/><rect x="67.89894736842105" y="67.89894736842105" width="0.33949473684210524" height="0.8487368421052631" fill="none" stroke="#ff0b0b" stroke-width="3"/><rect x="67.89894736842105" y="152.77263157894737" width="0.33949473684210524" height="0.5092421052631579" fill="#6ce3f5" stroke="#6ce3f5" stroke-width="3"/><rect x="67.89894736842105" y="203.69684210526316" width="0.33949473684210524" height="0.5092421052631579" fill="none" stroke="#0236fd" stroke-width="3"/><rect x="67.89894736842105" y="254.62105263157895" width="0.33949473684210524" height="0.6789894736842105" fill="#3307d0" stroke="#3307d0" stroke-width="3"/><rect x="67.89894736842105" y="322.52" width="0.33949473684210524" height="0.6789894736842105" fill="#3307d0" stroke="#3307d0" stroke-width="3"/><rect x="67.89894736842105" y="390.418947368421" width="0.33949473684210524" height="0.5092421052631579" fill="#0236fd" stroke="#0236fd" stroke-width="3"/><rect x="67.89894736842105" y="441.3431578947368" width="0.33949473684210524" height="0.25462105263157897" fill="#0236fd" stroke="#0236fd" stroke-width="3"/><rect x="67.89894736842105" y="466.80526315789473" width="0.33949473684210524" height="0.8487368421052631" fill="none" stroke="#3307d0" stroke-width="3"/><rect x="67.89894736842105" y="551.6789473684211" width="0.33949473684210524" height="0.33949473684210524" fill="#3307d0" stroke="#3307d0" stroke-width="3"/><rect x="67.89894736842105" y="585.6284210526316" width="0.33949473684210524" height="0.33949473684210524" fill="none" stroke="#6ce3f5" stroke-width="3"/><rect x="67.89894736842105" y="619.577894736842" width="0.33949473684210524" height="0.25462105263157897" fill="none" stroke="#0236fd" stroke-width="3"/><rect x="101.84842105263158" y="0" width="0.33949473684210524" height="0.8487368421052631" fill="none" stroke="#3307d0" stroke-width="3"/><rect x="101.84842105263158" y="84.8736842105263" width="0.33949473684210524" height="0.33949473684210524" fill="none" stroke="#ff0b0b" stroke-width="3"/><rect x="101.84842105263158" y="118.82315789473682" width="0.33949473684210524" height="0.8487368421052631" fill="#6ce3f5" stroke="#6ce3f5" stroke-width="3"/><rect x="101.84842105263158" y="203.69684210526313" width="0.33949473684210524" height="0.25462105263157897" fill="none" stroke="#3307d0" stroke-width="3"/><rect x="101.84842105263158" y="229.15894736842102" width="0.33949473684210524" height="0.5092421052631579" fill="none" stroke="#ff0b0b" stroke-width="3"/><rect x="101.84842105263158" y="280.0831578947368" width="0.33949473684210524" height="0.6789894736842105" fill="none" stroke="#6ce3f5" stroke-width="3"/><rect x="101.84842105263158" y="347.98210526315785" width="0.33949473684210524" height="0.8487368421052631" fill="none" stroke="#3307d0" stroke-width="3"/><rect x="101.84842105263158" y="432.8557894736841" width="0.33949473684210524" height="0.6789894736842105" fill="#ff0b0b" stroke="#ff0b0b" stroke-width="3"/><rect x="101.84842105263158" y="500.75473684210516" width="0.33949473684210524" height="0.33949473684210524" fill="none" stroke="#0236fd" stroke-width="3"/><rect x="101.84842105263158" y="534.7042105263157" width="0.33949473684210524" height="0.8487368421052631" fill="#3307d0" stroke="#3307d0" stroke-width="3"/><rect x="101.84842105263158" y="619.577894736842" width="0.33949473684210524" height="0.6789894736842105" fill="none" stroke="#3307d0" stroke-width="3"/><rect x="135.7978947368421" y="0" width="0.33949473684210524" height="0.33949473684210524" fill="#3307d0" stroke="#3307d0" stroke-width="3"/><rect x="135.7978947368421" y="33.949473684210524" width="0.33949473684210524" height="0.5092421052631579" fill="#0236fd" stroke="#0236fd" stroke-width="3"/><rect x="135.7978947368421" y="84.8736842105263" width="0.33949473684210524" height="0.8487368421052631" fill="none" stroke="#ff0b0b" stroke-width="3"/><rect x="135.7978947368421" y="169.7473684210526" width="0.33949473684210524" height="0.8487368421052631" fill="#6ce3f5" stroke="#6ce3f5" stroke-width="3"/><rect x="135.7978947368421" y="254.62105263157892" width="0.33949473684210524" height="0.5092421052631579" fill="#3307d0" stroke="#3307d0" stroke-width="3"/><rect x="135.7978947368421" y="305.54526315789474" width="0.33949473684210524" height="0.6789894736842105" fill="none" stroke="#6ce3f5" stroke-width="3"/><rect x="135.7978947368421" y="373.44421052631577" width="0.33949473684210524" height="0.6789894736842105" fill="#0236fd" stroke="#0236fd" stroke-width="3"/><rect x="135.7978947368421" y="441.3431578947368" width="0.33949473684210524" height="0.33949473684210524" fill="#3307d0" stroke="#3307d0" stroke-width="3"/><rect x="135.7978947368421" y="475.29263157894735" width="0.33949473684210524" height="0.6789894736842105" fill="none" stroke="#0236fd" stroke-width="3"/><rect x="135.7978947368421" y="543.1915789473684" width="0.33949473684210524" height="0.25462105263157897" fill="#0236fd" stroke="#0236fd" stroke-width="3"/><rect x="135.7978947368421" y="568.6536842105263" width="0.33949473684210524" height="0.5092421052631579" fill="none" stroke="#0236fd" stroke-width="3"/><rect x="135.7978947368421" y="619.5778947368422" width="0.33949473684210524" height="0.33949473684210524" fill="#0236fd" stroke="#0236fd" stroke-width="3"/><rect x="169.7473684210526" y="0" width="0.33949473684210524" height="0.6789894736842105" fill="#ff0b0b" stroke="#ff0b0b" stroke-width="3"/><rect x="169.7473684210526" y="67.89894736842105" width="0.33949473684210524" height="0.8487368421052631" fill="#3307d0" stroke="#3307d0" stroke-width="3"/><rect x="169.7473684210526" y="152.77263157894737" width="0.33949473684210524" height="0.5092421052631579" fill="#3307d0" stroke="#3307d0" stroke-width="3"/><rect x="169.7473684210526" y="203.69684210526316" width="0.33949473684210524" height="0.33949473684210524" fill="none" stroke="#6ce3f5" stroke-width="3"/><rect x="169.7473684210526" y="237.64631578947368" width="0.33949473684210524" height="0.6789894736842105" fill="none" stroke="#3307d0" stroke-width="3"/><rect x="169.7473684210526" y="305.54526315789474" width="0.33949473684210524" height="0.25462105263157897" fill="none" stroke="#6ce3f5" stroke-width="3"/><rect x="169.7473684210526" y="331.00736842105266" width="0.33949473684210524" height="0.25462105263157897" fill="#6ce3f5" stroke="#6ce3f5" stroke-width="3"/><rect x="169.7473684210526" y="356.4694736842106" width="0.33949473684210524" height="0.8487368421052631" fill="#6ce3f5" stroke="#6ce3f5" stroke-width="3"/><rect x="169.7473684210526" y="441.3431578947369" width="0.33949473684210524" height="0.6789894736842105" fill="none" stroke="#0236fd" stroke-width="3"/><rect x="169.7473684210526" y="509.24210526315795" width="0.33949473684210524" height="0.8487368421052631" fill="#6ce3f5" stroke="#6ce3f5" stroke-width="3"/><rect x="169.7473684210526" y="594.1157894736842" width="0.33949473684210524" height="0.25462105263157897" fill="#ff0b0b" stroke="#ff0b0b" stroke-width="3"/><rect x="169.7473684210526" y="619.5778947368422" width="0.33949473684210524" height="0.8487368421052631" fill="#ff0b0b" stroke="#ff0b0b" stroke-width="3"/><rect x="203.69684210526316" y="0" width="0.33949473684210524" height="0.8487368421052631" fill="none" stroke="#ff0b0b" stroke-width="3"/><rect x="203.69684210526316" y="84.8736842105263" width="0.33949473684210524" height="0.8487368421052631" fill="none" stroke="#ff0b0b" stroke-width="3"/><rect x="203.69684210526316" y="169.7473684210526" width="0.33949473684210524" height="0.6789894736842105" fill="#6ce3f5" stroke="#6ce3f5" stroke-width="3"/><rect x="203.69684210526316" y="237.64631578947365" width="0.33949473684210524" height="0.6789894736842105" fill="#0236fd" stroke="#0236fd" stroke-width="3"/><rect x="203.69684210526316" y="305.5452631578947" width="0.33949473684210524" height="0.6789894736842105" fill="#6ce3f5" stroke="#6ce3f5" stroke-width="3"/><rect x="203.69684210526316" y="373.4442105263157" width="0.33949473684210524" height="0.6789894736842105" fill="none" stroke="#6ce3f5" stroke-width="3"/><rect x="203.69684210526316" y="441.34315789473675" width="0.33949473684210524" height="0.8487368421052631" fill="none" stroke="#3307d0" stroke-width="3"/><rect x="203.69684210526316" y="526.216842105263" width="0.33949473684210524" height="0.8487368421052631" fill="#3307d0" stroke="#3307d0" stroke-width="3"/><rect x="203.69684210526316" y="611.0905263157894" width="0.33949473684210524" height="0.8487368421052631" fill="none" stroke="#ff0b0b" stroke-width="3"/><rect x="237.64631578947368" y="0" width="0.33949473684210524" height="0.8487368421052631" fill="none" stroke="#3307d0" stroke-width="3"/><rect x="237.64631578947368" y="84.8736842105263" width="0.33949473684210524" height="0.5092421052631579" fill="none" stroke="#ff0b0b" stroke-width="3"/><rect x="237.64631578947368" y="135.7978947368421" width="0.33949473684210524" height="0.33949473684210524" fill="#3307d0" stroke="#3307d0" stroke-width="3"/><rect x="237.64631578947368" y="169.7473684210526" width="0.33949473684210524" height="0.6789894736842105" fill="none" stroke="#6ce3f5" stroke-width="3"/><rect x="237.64631578947368" y="237.64631578947365" width="0.33949473684210524" height="0.6789894736842105" fill="#6ce3f5" stroke="#6ce3f5" stroke-width="3"/><rect x="237.64631578947368" y="305.5452631578947" width="0.33949473684210524" height="0.25462105263157897" fill="#6ce3f5" stroke="#6ce3f5" stroke-width="3"/><rect x="237.64631578947368" y="331.00736842105255" width="0.33949473684210524" height="0.25462105263157897" fill="none" stroke="#6ce3f5" stroke-width="3"/><rect x="237.64631578947368" y="356.46947368421047" width="0.33949473684210524" height="0.33949473684210524" fill="#6ce3f5" stroke="#6ce3f5" stroke-width="3"/><rect x="237.64631578947368" y="390.418947368421" width="0.33949473684210524" height="0.5092421052631579" fill="#3307d0" stroke="#3307d0" stroke-width="3"/><rect x="237.64631578947368" y="441.3431578947368" width="0.33949473684210524" height="0.5092421052631579" fill="#6ce3f5" stroke="#6ce3f5" stroke-width="3"/><rect x="237.64631578947368" y="492.2673684210526" width="0.33949473684210524" height="0.5092421052631579" fill="none" stroke="#ff0b0b" stroke-width="3"/><rect x="237.64631578947368" y="543.1915789473684" width="0.33949473684210524" height="0.25462105263157897" fill="#ff0b0b" stroke="#ff0b0b" stroke-width="3"/><rect x="237.64631578947368" y="568.6536842105263" width="0.33949473684210524" height="0.5092421052631579" fill="#0236fd" stroke="#0236fd" stroke-width="3"/><rect x="237.64631578947368" y="619.5778947368422" width="0.33949473684210524" height="0.6789894736842105" fill="#6ce3f5" stroke="#6ce3f5" stroke-width="3"/><rect x="271.5957894736842" y="0" width="0.33949473684210524" height="0.33949473684210524" fill="#0236fd" stroke="#0236fd" stroke-width="3"/><rect x="271.5957894736842" y="33.949473684210524" width="0.33949473684210524" height="0.5092421052631579" fill="none" stroke="#0236fd" stroke-width="3"/><rect x="271.5957894736842" y="84.8736842105263" width="0.33949473684210524" height="0.5092421052631579" fill="#ff0b0b" stroke="#ff0b0b" stroke-width="3"/><rect x="271.5957894736842" y="135.7978947368421" width="0.33949473684210524" height="0.8487368421052631" fill="none" stroke="#3307d0" stroke-width="3"/><rect x="271.5957894736842" y="220.6715789473684" width="0.33949473684210524" height="0.25462105263157897" fill="none" stroke="#6ce3f5" stroke-width="3"/><rect x="271.5957894736842" y="246.1336842105263" width="0.33949473684210524" height="0.33949473684210524" fill="#ff0b0b" stroke="#ff0b0b" stroke-width="3"/><rect x="271.5957894736842" y="280.0831578947368" width="0.33949473684210524" height="0.5092421052631579" fill="none" stroke="#3307d0" stroke-width="3"/><rect x="271.5957894736842" y="331.0073684210526" width="0.33949473684210524" height="0.25462105263157897" fill="none" stroke="#ff0b0b" stroke-width="3"/><rect x="271.5957894736842" y="356.46947368421047" width="0.33949473684210524" height="0.5092421052631579" fill="#0236fd" stroke="#0236fd" stroke-width="3"/><rect x="271.5957894736842" y="407.39368421052626" width="0.33949473684210524" height="0.5092421052631579" fill="#0236fd" stroke="#0236fd" stroke-width="3"/><rect x="271.5957894736842" y="458.31789473684205" width="0.33949473684210524" height="0.5092421052631579" fill="#3307d0" stroke="#3307d0" stroke-width="3"/><rect x="271.5957894736842" y="509.24210526315784" width="0.33949473684210524" height="0.5092421052631579" fill="#0236fd" stroke="#0236fd" stroke-width="3"/><rect x="271.5957894736842" y="560.1663157894736" width="0.33949473684210524" height="0.25462105263157897" fill="none" stroke="#3307d0" stroke-width="3"/><rect x="271.5957894736842" y="585.6284210526316" width="0.33949473684210524" height="0.33949473684210524" fill="none" stroke="#6ce3f5" stroke-width="3"/><rect x="271.5957894736842" y="619.577894736842" width="0.33949473684210524" height="0.8487368421052631" fill="none" stroke="#ff0b0b" stroke-width="3"/><rect x="305.54526315789474" y="0" width="0.33949473684210524" height="0.8487368421052631" fill="none" stroke="#3307d0" stroke-width="3"/><rect x="305.54526315789474" y="84.8736842105263" width="0.33949473684210524" height="0.6789894736842105" fill="none" stroke="#ff0b0b" stroke-width="3"/><rect x="305.54526315789474" y="152.77263157894737" width="0.33949473684210524" height="0.5092421052631579" fill="none" stroke="#ff0b0b" stroke-width="3"/><rect x="305.54526315789474" y="203.69684210526316" width="0.33949473684210524" height="0.8487368421052631" fill="#6ce3f5" stroke="#6ce3f5" stroke-width="3"/><rect x="305.54526315789474" y="288.5705263157895" width="0.33949473684210524" height="0.6789894736842105" fill="none" stroke="#3307d0" stroke-width="3"/><rect x="305.54526315789474" y="356.4694736842105" width="0.33949473684210524" height="0.33949473684210524" fill="#6ce3f5" stroke="#6ce3f5" stroke-width="3"/><rect x="305.54526315789474" y="390.4189473684211" width="0.33949473684210524" height="0.33949473684210524" fill="none" stroke="#6ce3f5" stroke-width="3"/><rect x="305.54526315789474" y="424.3684210526316" width="0.33949473684210524" height="0.33949473684210524" fill="#3307d0" stroke="#3307d0" stroke-width="3"/><rect x="305.54526315789474" y="458.31789473684216" width="0.33949473684210524" height="0.25462105263157897" fill="none" stroke="#6ce3f5" stroke-width="3"/><rect x="305.54526315789474" y="483.7800000000001" width="0.33949473684210524" height="0.8487368421052631" fill="#3307d0" stroke="#3307d0" stroke-width="3"/><rect x="305.54526315789474" y="568.6536842105264" width="0.33949473684210524" height="0.33949473684210524" fill="#6ce3f5" stroke="#6ce3f5" stroke-width="3"/><rect x="305.54526315789474" y="602.6031578947369" width="0.33949473684210524" height="0.8487368421052631" fill="#ff0b0b" stroke="#ff0b0b" stroke-width="3"/><rect x="339.4947368421052" y="0" width="0.33949473684210524" height="0.6789894736842105" fill="none" stroke="#3307d0" stroke-width="3"/><rect x="339.4947368421052" y="67.89894736842105" width="0.33949473684210524" height="0.6789894736842105" fill="#0236fd" stroke="#0236fd" stroke-width="3"/><rect x="339.4947368421052" y="135.7978947368421" width="0.33949473684210524" height="0.33949473684210524" fill="none" stroke="#6ce3f5" stroke-width="3"/><rect x="339.4947368421052" y="169.7473684210526" width="0.33949473684210524" height="0.8487368421052631" fill="none" stroke="#ff0b0b" stroke-width="3"/><rect x="339.4947368421052" y="254.62105263157892" width="0.33949473684210524" height="0.8487368421052631" fill="none" stroke="#0236fd" stroke-width="3"/><rect x="339.4947368421052" y="339.4947368421052" width="0.33949473684210524" height="0.6789894736842105" fill="none" stroke="#0236fd" stroke-width="3"/><rect x="339.4947368421052" y="407.39368421052626" width="0.33949473684210524" height="0.5092421052631579" fill="#0236fd" stroke="#0236fd" stroke-width="3"/><rect x="339.4947368421052" y="458.31789473684205" width="0.33949473684210524" height="0.25462105263157897" fill="#ff0b0b" stroke="#ff0b0b" stroke-width="3"/><rect x="339.4947368421052" y="483.78" width="0.33949473684210524" height="0.8487368421052631" fill="none" stroke="#6ce3f5" stroke-width="3"/><rect x="339.4947368421052" y="568.6536842105263" width="0.33949473684210524" height="0.6789894736842105" fill="#0236fd" stroke="#0236fd" stroke-width="3"/><rect x="339.4947368421052" y="636.5526315789474" width="0.33949473684210524" height="0.8487368421052631" fill="#6ce3f5" stroke="#6ce3f5" stroke-width="3"/><rect x="373.44421052631577" y="0" width="0.33949473684210524" height="0.5092421052631579" fill="#6ce3f5" stroke="#6ce3f5" stroke-width="3"/><rect x="373.44421052631577" y="50.92421052631579" width="0.33949473684210524" height="0.8487368421052631" fill="none" stroke="#6ce3f5" stroke-width="3"/><rect x="373.44421052631577" y="135.7978947368421" width="0.33949473684210524" height="0.25462105263157897" fill="#3307d0" stroke="#3307d0" stroke-width="3"/><rect x="373.44421052631577" y="161.26" width="0.33949473684210524" height="0.8487368421052631" fill="none" stroke="#6ce3f5" stroke-width="3"/><rect x="373.44421052631577" y="246.1336842105263" width="0.33949473684210524" height="0.25462105263157897" fill="#3307d0" stroke="#3307d0" stroke-width="3"/><rect x="373.44421052631577" y="271.5957894736842" width="0.33949473684210524" height="0.33949473684210524" fill="#3307d0" stroke="#3307d0" stroke-width="3"/><rect x="373.44421052631577" y="305.54526315789474" width="0.33949473684210524" height="0.8487368421052631" fill="#ff0b0b" stroke="#ff0b0b" stroke-width="3"/><rect x="373.44421052631577" y="390.4189473684211" width="0.33949473684210524" height="0.6789894736842105" fill="#6ce3f5" stroke="#6ce3f5" stroke-width="3"/><rect x="373.44421052631577" y="458.3178947368421" width="0.33949473684210524" height="0.33949473684210524" fill="#3307d0" stroke="#3307d0" stroke-width="3"/><rect x="373.44421052631577" y="492.26736842105265" width="0.33949473684210524" height="0.6789894736842105" fill="none" stroke="#0236fd" stroke-width="3"/><rect x="373.44421052631577" y="560.1663157894737" width="0.33949473684210524" height="0.8487368421052631" fill="#3307d0" stroke="#3307d0" stroke-width="3"/><rect x="407.3936842105263" y="0" width="0.33949473684210524" height="0.8487368421052631" fill="#0236fd" stroke="#0236fd" stroke-width="3"/><rect x="407.3936842105263" y="84.8736842105263" width="0.33949473684210524" height="0.5092421052631579" fill="#6ce3f5" stroke="#6ce3f5" stroke-width="3"/><rect x="407.3936842105263" y="135.7978947368421" width="0.33949473684210524" height="0.6789894736842105" fill="none" stroke="#6ce3f5" stroke-width="3"/><rect x="407.3936842105263" y="203.69684210526316" width="0.33949473684210524" height="0.6789894736842105" fill="none" stroke="#6ce3f5" stroke-width="3"/><rect x="407.3936842105263" y="271.5957894736842" width="0.33949473684210524" height="0.25462105263157897" fill="#3307d0" stroke="#3307d0" stroke-width="3"/><rect x="407.3936842105263" y="297.05789473684206" width="0.33949473684210524" height="0.25462105263157897" fill="none" stroke="#0236fd" stroke-width="3"/><rect x="407.3936842105263" y="322.52" width="0.33949473684210524" height="0.6789894736842105" fill="none" stroke="#ff0b0b" stroke-width="3"/><rect x="407.3936842105263" y="390.418947368421" width="0.33949473684210524" height="0.33949473684210524" fill="none" stroke="#3307d0" stroke-width="3"/><rect x="407.3936842105263" y="424.36842105263156" width="0.33949473684210524" height="0.25462105263157897" fill="none" stroke="#0236fd" stroke-width="3"/><rect x="407.3936842105263" y="449.8305263157895" width="0.33949473684210524" height="0.25462105263157897" fill="#0236fd" stroke="#0236fd" stroke-width="3"/><rect x="407.3936842105263" y="475.2926315789474" width="0.33949473684210524" height="0.8487368421052631" fill="none" stroke="#3307d0" stroke-width="3"/><rect x="407.3936842105263" y="560.1663157894737" width="0.33949473684210524" height="0.33949473684210524" fill="#3307d0" stroke="#3307d0" stroke-width="3"/><rect x="407.3936842105263" y="594.1157894736842" width="0.33949473684210524" height="0.5092421052631579" fill="none" stroke="#0236fd" stroke-width="3"/><rect x="441.3431578947368" y="0" width="0.33949473684210524" height="0.25462105263157897" fill="none" stroke="#3307d0" stroke-width="3"/><rect x="441.3431578947368" y="25.462105263157895" width="0.33949473684210524" height="0.5092421052631579" fill="none" stroke="#6ce3f5" stroke-width="3"/><rect x="441.3431578947368" y="76.38631578947368" width="0.33949473684210524" height="0.6789894736842105" fill="#0236fd" stroke="#0236fd" stroke-width="3"/><rect x="441.3431578947368" y="144.28526315789475" width="0.33949473684210524" height="0.33949473684210524" fill="none" stroke="#3307d0" stroke-width="3"/><rect x="441.3431578947368" y="178.23473684210526" width="0.33949473684210524" height="0.6789894736842105" fill="none" stroke="#3307d0" stroke-width="3"/><rect x="441.3431578947368" y="246.13368421052633" width="0.33949473684210524" height="0.25462105263157897" fill="#3307d0" stroke="#3307d0" stroke-width="3"/><rect x="441.3431578947368" y="271.59578947368425" width="0.33949473684210524" height="0.8487368421052631" fill="#6ce3f5" stroke="#6ce3f5" stroke-width="3"/><rect x="441.3431578947368" y="356.4694736842106" width="0.33949473684210524" height="0.33949473684210524" fill="none" stroke="#ff0b0b" stroke-width="3"/><rect x="441.3431578947368" y="390.41894736842113" width="0.33949473684210524" height="0.33949473684210524" fill="#3307d0" stroke="#3307d0" stroke-width="3"/><rect x="441.3431578947368" y="424.3684210526317" width="0.33949473684210524" height="0.25462105263157897" fill="#ff0b0b" stroke="#ff0b0b" stroke-width="3"/><rect x="441.3431578947368" y="449.8305263157896" width="0.33949473684210524" height="0.5092421052631579" fill="#ff0b0b" stroke="#ff0b0b" stroke-width="3"/><rect x="441.3431578947368" y="500.7547368421054" width="0.33949473684210524" height="0.33949473684210524" fill="#6ce3f5" stroke="#6ce3f5" stroke-width="3"/><rect x="441.3431578947368" y="534.7042105263159" width="0.33949473684210524" height="0.25462105263157897" fill="#ff0b0b" stroke="#ff0b0b" stroke-width="3"/><rect x="441.3431578947368" y="560.1663157894739" width="0.33949473684210524" height="0.25462105263157897" fill="#0236fd" stroke="#0236fd" stroke-width="3"/><rect x="441.3431578947368" y="585.6284210526318" width="0.33949473684210524" height="0.6789894736842105" fill="none" stroke="#ff0b0b" stroke-width="3"/><rect x="475.29263157894735" y="0" width="0.33949473684210524" height="0.25462105263157897" fill="#6ce3f5" stroke="#6ce3f5" stroke-width="3"/><rect x="475.29263157894735" y="25.462105263157895" width="0.33949473684210524" height="0.25462105263157897" fill="#ff0b0b" stroke="#ff0b0b" stroke-width="3"/><rect x="475.29263157894735" y="50.92421052631579" width="0.33949473684210524" height="0.6789894736842105" fill="none" stroke="#0236fd" stroke-width="3"/><rect x="475.29263157894735" y="118.82315789473684" width="0.33949473684210524" height="0.8487368421052631" fill="#ff0b0b" stroke="#ff0b0b" stroke-width="3"/><rect x="475.29263157894735" y="203.69684210526316" width="0.33949473684210524" height="0.33949473684210524" fill="none" stroke="#0236fd" stroke-width="3"/><rect x="475.29263157894735" y="237.64631578947368" width="0.33949473684210524" height="0.33949473684210524" fill="none" stroke="#3307d0" stroke-width="3"/><rect x="475.29263157894735" y="271.5957894736842" width="0.33949473684210524" height="0.8487368421052631" fill="none" stroke="#0236fd" stroke-width="3"/><rect x="475.29263157894735" y="356.46947368421047" width="0.33949473684210524" height="0.25462105263157897" fill="#ff0b0b" stroke="#ff0b0b" stroke-width="3"/><rect x="475.29263157894735" y="381.9315789473684" width="0.33949473684210524" height="0.25462105263157897" fill="none" stroke="#3307d0" stroke-width="3"/><rect x="475.29263157894735" y="407.3936842105263" width="0.33949473684210524" height="0.33949473684210524" fill="#6ce3f5" stroke="#6ce3f5" stroke-width="3"/><rect x="475.29263157894735" y="441.34315789473686" width="0.33949473684210524" height="0.25462105263157897" fill="#6ce3f5" stroke="#6ce3f5" stroke-width="3"/><rect x="475.29263157894735" y="466.80526315789473" width="0.33949473684210524" height="0.8487368421052631" fill="#6ce3f5" stroke="#6ce3f5" stroke-width="3"/><rect x="475.29263157894735" y="551.6789473684211" width="0.33949473684210524" height="0.5092421052631579" fill="#0236fd" stroke="#0236fd" stroke-width="3"/><rect x="475.29263157894735" y="602.6031578947368" width="0.33949473684210524" height="0.5092421052631579" fill="none" stroke="#ff0b0b" stroke-width="3"/><rect x="509.24210526315784" y="0" width="0.33949473684210524" height="0.8487368421052631" fill="#6ce3f5" stroke="#6ce3f5" stroke-width="3"/><rect x="509.24210526315784" y="84.8736842105263" width="0.33949473684210524" height="0.5092421052631579" fill="none" stroke="#ff0b0b" stroke-width="3"/><rect x="509.24210526315784" y="135.7978947368421" width="0.33949473684210524" height="0.8487368421052631" fill="#0236fd" stroke="#0236fd" stroke-width="3"/><rect x="509.24210526315784" y="220.6715789473684" width="0.33949473684210524" height="0.8487368421052631" fill="none" stroke="#ff0b0b" stroke-width="3"/><rect x="509.24210526315784" y="305.54526315789474" width="0.33949473684210524" height="0.8487368421052631" fill="none" stroke="#0236fd" stroke-width="3"/><rect x="509.24210526315784" y="390.4189473684211" width="0.33949473684210524" height="0.6789894736842105" fill="#6ce3f5" stroke="#6ce3f5" stroke-width="3"/><rect x="509.24210526315784" y="458.3178947368421" width="0.33949473684210524" height="0.5092421052631579" fill="none" stroke="#3307d0" stroke-width="3"/><rect x="509.24210526315784" y="509.2421052631579" width="0.33949473684210524" height="0.25462105263157897" fill="#ff0b0b" stroke="#ff0b0b" stroke-width="3"/><rect x="509.24210526315784" y="534.7042105263158" width="0.33949473684210524" height="0.25462105263157897" fill="#0236fd" stroke="#0236fd" stroke-width="3"/><rect x="509.24210526315784" y="560.1663157894737" width="0.33949473684210524" height="0.6789894736842105" fill="#0236fd" stroke="#0236fd" stroke-width="3"/><rect x="509.24210526315784" y="628.0652631578948" width="0.33949473684210524" height="0.6789894736842105" fill="#0236fd" stroke="#0236fd" stroke-width="3"/><rect x="543.1915789473684" y="0" width="0.33949473684210524" height="0.5092421052631579" fill="none" stroke="#3307d0" stroke-width="3"/><rect x="543.1915789473684" y="50.92421052631579" width="0.33949473684210524" height="0.25462105263157897" fill="#3307d0" stroke="#3307d0" stroke-width="3"/><rect x="543.1915789473684" y="76.38631578947368" width="0.33949473684210524" height="0.25462105263157897" fill="#6ce3f5" stroke="#6ce3f5" stroke-width="3"/><rect x="543.1915789473684" y="101.84842105263158" width="0.33949473684210524" height="0.8487368421052631" fill="#0236fd" stroke="#0236fd" stroke-width="3"/><rect x="543.1915789473684" y="186.72210526315789" width="0.33949473684210524" height="0.5092421052631579" fill="#0236fd" stroke="#0236fd" stroke-width="3"/><rect x="543.1915789473684" y="237.64631578947368" width="0.33949473684210524" height="0.33949473684210524" fill="none" stroke="#3307d0" stroke-width="3"/><rect x="543.1915789473684" y="271.5957894736842" width="0.33949473684210524" height="0.6789894736842105" fill="none" stroke="#ff0b0b" stroke-width="3"/><rect x="543.1915789473684" y="339.4947368421052" width="0.33949473684210524" height="0.6789894736842105" fill="none" stroke="#6ce3f5" stroke-width="3"/><rect x="543.1915789473684" y="407.39368421052626" width="0.33949473684210524" height="0.6789894736842105" fill="none" stroke="#0236fd" stroke-width="3"/><rect x="543.1915789473684" y="475.2926315789473" width="0.33949473684210524" height="0.5092421052631579" fill="#6ce3f5" stroke="#6ce3f5" stroke-width="3"/><rect x="543.1915789473684" y="526.2168421052631" width="0.33949473684210524" height="0.25462105263157897" fill="#0236fd" stroke="#0236fd" stroke-width="3"/><rect x="543.1915789473684" y="551.6789473684211" width="0.33949473684210524" height="0.25462105263157897" fill="#0236fd" stroke="#0236fd" stroke-width="3"/><rect x="543.1915789473684" y="577.141052631579" width="0.33949473684210524" height="0.8487368421052631" fill="none" stroke="#6ce3f5" stroke-width="3"/><rect x="577.1410526315789" y="0" width="0.33949473684210524" height="0.8487368421052631" fill="none" stroke="#0236fd" stroke-width="3"/><rect x="577.1410526315789" y="84.8736842105263" width="0.33949473684210524" height="0.25462105263157897" fill="none" stroke="#0236fd" stroke-width="3"/><rect x="577.1410526315789" y="110.3357894736842" width="0.33949473684210524" height="0.5092421052631579" fill="none" stroke="#3307d0" stroke-width="3"/><rect x="577.1410526315789" y="161.26" width="0.33949473684210524" height="0.6789894736842105" fill="#6ce3f5" stroke="#6ce3f5" stroke-width="3"/><rect x="577.1410526315789" y="229.15894736842102" width="0.33949473684210524" height="0.33949473684210524" fill="#ff0b0b" stroke="#ff0b0b" stroke-width="3"/><rect x="577.1410526315789" y="263.10842105263157" width="0.33949473684210524" height="0.6789894736842105" fill="#3307d0" stroke="#3307d0" stroke-width="3"/><rect x="577.1410526315789" y="331.0073684210526" width="0.33949473684210524" height="0.8487368421052631" fill="none" stroke="#ff0b0b" stroke-width="3"/><rect x="577.1410526315789" y="415.8810526315789" width="0.33949473684210524" height="0.25462105263157897" fill="#6ce3f5" stroke="#6ce3f5" stroke-width="3"/><rect x="577.1410526315789" y="441.3431578947368" width="0.33949473684210524" height="0.33949473684210524" fill="none" stroke="#3307d0" stroke-width="3"/><rect x="577.1410526315789" y="475.29263157894735" width="0.33949473684210524" height="0.33949473684210524" fill="none" stroke="#6ce3f5" stroke-width="3"/><rect x="577.1410526315789" y="509.2421052631579" width="0.33949473684210524" height="0.6789894736842105" fill="none" stroke="#ff0b0b" stroke-width="3"/><rect x="577.1410526315789" y="577.141052631579" width="0.33949473684210524" height="0.8487368421052631" fill="#ff0b0b" stroke="#ff0b0b" stroke-width="3"/><rect x="611.0905263157895" y="0" width="0.33949473684210524" height="0.6789894736842105" fill="none" stroke="#0236fd" stroke-width="3"/><rect x="611.0905263157895" y="67.89894736842105" width="0.33949473684210524" height="0.25462105263157897" fill="none" stroke="#3307d0" stroke-width="3"/><rect x="611.0905263157895" y="93.36105263157894" width="0.33949473684210524" height="0.8487368421052631" fill="#ff0b0b" stroke="#ff0b0b" stroke-width="3"/><rect x="611.0905263157895" y="178.23473684210524" width="0.33949473684210524" height="0.25462105263157897" fill="#ff0b0b" stroke="#ff0b0b" stroke-width="3"/><rect x="611.0905263157895" y="203.69684210526313" width="0.33949473684210524" height="0.8487368421052631" fill="none" stroke="#3307d0" stroke-width="3"/><rect x="611.0905263157895" y="288.57052631578944" width="0.33949473684210524" height="0.33949473684210524" fill="#6ce3f5" stroke="#6ce3f5" stroke-width="3"/><rect x="611.0905263157895" y="322.52" width="0.33949473684210524" height="0.6789894736842105" fill="none" stroke="#0236fd" stroke-width="3"/><rect x="611.0905263157895" y="390.418947368421" width="0.33949473684210524" height="0.33949473684210524" fill="none" stroke="#ff0b0b" stroke-width="3"/><rect x="611.0905263157895" y="424.36842105263156" width="0.33949473684210524" height="0.8487368421052631" fill="none" stroke="#6ce3f5" stroke-width="3"/><rect x="611.0905263157895" y="509.2421052631579" width="0.33949473684210524" height="0.8487368421052631" fill="none" stroke="#6ce3f5" stroke-width="3"/><rect x="611.0905263157895" y="594.1157894736842" width="0.33949473684210524" height="0.25462105263157897" fill="#6ce3f5" stroke="#6ce3f5" stroke-width="3"/><rect x="611.0905263157895" y="619.5778947368422" width="0.33949473684210524" height="0.33949473684210524" fill="#0236fd" stroke="#0236fd" stroke-width="3"/><rect x="645.04" y="0" width="0.33949473684210524" height="0.6789894736842105" fill="none" stroke="#3307d0" stroke-width="3"/><rect x="645.04" y="67.89894736842105" width="0.33949473684210524" height="0.6789894736842105" fill="#0236fd" stroke="#0236fd" stroke-width="3"/><rect x="645.04" y="135.7978947368421" width="0.33949473684210524" height="0.33949473684210524" fill="#ff0b0b" stroke="#ff0b0b" stroke-width="3"/><rect x="645.04" y="169.7473684210526" width="0.33949473684210524" height="0.25462105263157897" fill="#3307d0" stroke="#3307d0" stroke-width="3"/><rect x="645.04" y="195.2094736842105" width="0.33949473684210524" height="0.8487368421052631" fill="#6ce3f5" stroke="#6ce3f5" stroke-width="3"/><rect x="645.04" y="280.0831578947368" width="0.33949473684210524" height="0.6789894736842105" fill="none" stroke="#ff0b0b" stroke-width="3"/><rect x="645.04" y="347.98210526315785" width="0.33949473684210524" height="0.8487368421052631" fill="none" stroke="#6ce3f5" stroke-width="3"/><rect x="645.04" y="432.8557894736841" width="0.33949473684210524" height="0.5092421052631579" fill="#6ce3f5" stroke="#6ce3f5" stroke-width="3"/><rect x="645.04" y="483.7799999999999" width="0.33949473684210524" height="0.6789894736842105" fill="#0236fd" stroke="#0236fd" stroke-width="3"/><rect x="645.04" y="551.678947368421" width="0.33949473684210524" height="0.25462105263157897" fill="#3307d0" stroke="#3307d0" stroke-width="3"/><rect x="645.04" y="577.1410526315789" width="0.33949473684210524" height="0.33949473684210524" fill="none" stroke="#ff0b0b" stroke-width="3"/><rect x="645.04" y="611.0905263157894" width="0.33949473684210524" height="0.25462105263157897" fill="none" stroke="#ff0b0b" stroke-width="3"/><rect x="645.04" y="636.5526315789473" width="0.33949473684210524" height="0.5092421052631579" fill="none" stroke="#3307d0" stroke-width="3"/></svg>