<svg width="816" height="909" viewBox="0 0 816 909" fill="none" xmlns="http://www.w3.org/2000/svg">
<g id="Frame 1" clip-path="url(#clip0_0_1)">
<rect width="816" height="909" fill="white"/>
<rect id="sq-mb" x="343" y="779" width="130" height="130" fill="#D9D9D9"/>
<rect id="sq-mt" x="343" width="130" height="130" fill="#D9D9D9"/>
<rect id="sq-mr" x="692" y="389" width="130" height="130" fill="#D9D9D9"/>
<rect id="sq-tr" x="686" width="130" height="130" fill="#D9D9D9"/>
<rect id="sq-ml" y="389" width="130" height="130" fill="#D9D9D9"/>
<rect id="sq-tl" width="130" height="130" fill="#D9D9D9"/>
<rect id="sq-bl" y="779" width="130" height="130" fill="#D9D9D9"/>
<rect id="sq-br" x="686" y="778" width="130" height="130" fill="#D9D9D9"/>
<rect id="sq-middle" x="261" y="304" width="300" height="300" fill="#D9D9D9"/>
<line id="Line 1" x1="129.398" y1="129.698" x2="261.398" y2="303.698" stroke="black"/>
<line id="Line 2" x1="128.729" y1="388.58" x2="260.729" y2="303.58" stroke="black"/>
<line id="Line 3" x1="129.6" y1="778.7" x2="260.6" y2="603.7" stroke="black"/>
<line id="Line 4" x1="129.271" y1="518.58" x2="261.271" y2="603.58" stroke="black"/>
<line id="Line 5" x1="342.547" y1="779.212" x2="260.547" y2="604.212" stroke="black"/>
<line id="Line 6" x1="472.553" y1="778.775" x2="560.553" y2="603.775" stroke="black"/>
<line id="Line 7" x1="685.594" y1="778.292" x2="560.594" y2="604.292" stroke="black"/>
<line id="Line 8" x1="692.272" y1="519.419" x2="561.272" y2="604.419" stroke="black"/>
<line id="Line 9" x1="691.728" y1="389.419" x2="560.728" y2="304.419" stroke="black"/>
<line id="Line 10" x1="686.406" y1="130.292" x2="561.406" y2="304.292" stroke="black"/>
<line id="Line 11" x1="473.446" y1="129.774" x2="561.446" y2="303.774" stroke="black"/>
<line id="Line 12" x1="343.452" y1="130.213" x2="261.452" y2="304.213" stroke="black"/>
</g>
<defs>
<clipPath id="clip0_0_1">
<rect width="816" height="909" fill="white"/>
</clipPath>
</defs>
</svg>
